<svg xmlns="http://www.w3.org/2000/svg" aria-hidden="true" style="position:absolute;width:0;height:0;overflow:hidden">
  <defs>
    <symbol id="icon-instagram" viewBox="0 0 24 24">
      <path stroke-linecap="round" stroke-linejoin="round" stroke-width="2"
        d="M17 2H7a5 5 0 0 0-5 5v10a5 5 0 0 0 5 5h10a5 5 0 0 0 5-5V7a5 5 0 0 0-5-5z" />
      <path stroke-linecap="round" stroke-linejoin="round" stroke-width="2"
        d="M16 11.37a4.003 4.003 0 0 1-4.592 4.536 4.001 4.001 0 0 1-1.207-7.5A4 4 0 0 1 16 11.37zM17.5 6.5h.01" />
    </symbol>
    <symbol id="icon-twitter" viewBox="0 0 24 24">
      <path stroke-linecap="round" stroke-linejoin="round" stroke-width="2"
        d="M23 3a10.921 10.921 0 0 1-3.14 1.53 4.485 4.485 0 0 0-4.978-1.245A4.48 4.48 0 0 0 12 7.53v1c-1.757.046-3.499-.344-5.069-1.135S3.51 4.723 2.5 3.284C2.5 3.284-1 13 8 17a11.639 11.639 0 0 1-7 2c9 5 20 0 20-11.5a4.532 4.532 0 0 0-.08-.83A7.716 7.716 0 0 0 23 3z" />
    </symbol>
    <symbol id="icon-chocolate" viewBox="0 0 24 24">
      <path d="m2.958 15.057 8.083-13.068.48-.506 6.177 4.118.042 2.485 1.508 2.46-6.66 10.557-9.629-6.047z" />
      <path stroke-linecap="round" stroke-linejoin="round" stroke-width="2"
        d="M16.226 17.91 5.587 11.262m2.934-4.813 10.639 6.648M7.972 19.398 16.774 4.96m3.608 6.132c-2.28-1.425-3.175-2.538-1.708-4.944l-7.219-4.511-8.802 14.438 10.639 6.648 7.09-11.63z" />
    </symbol>
  </defs>
</svg>